<svg width="141" height="46" viewBox="0 0 141 46" fill="none" xmlns="http://www.w3.org/2000/svg">
<path d="M12.5833 0.640625V0.836497L11.7615 1.03237V9.71094L12.5833 9.90681V10.1027H8.68719V9.90681L9.50904 9.71094V2.31306L6.28258 10.2383H5.87164L1.68637 2.31306V9.5L2.78215 9.90681V10.1027H0.179688V9.90681L1.27547 9.5V1.03237L0.453621 0.836497V0.640625H2.15816C2.41688 0.640625 2.64518 0.670758 2.82781 0.731026C3.01044 0.791294 3.19309 0.866628 3.33006 0.972097C3.48226 1.07757 3.60401 1.1981 3.71054 1.33371C3.81708 1.46931 3.9084 1.63505 3.99971 1.80078L6.98265 7.45089L9.26553 1.80078C9.34162 1.60491 9.41774 1.43918 9.52427 1.30357C9.61559 1.16797 9.73731 1.04743 9.87428 0.941965C10.0113 0.836497 10.1787 0.76116 10.3765 0.715959C10.5744 0.670758 10.8179 0.640625 11.1223 0.640625H12.5833Z" fill="white"/>
<path d="M17.4542 3.15576C18.0173 3.15576 18.5348 3.2311 18.9761 3.39683C19.4175 3.56257 19.7979 3.80364 20.1176 4.10498C20.4372 4.42139 20.6654 4.79806 20.8329 5.235C21.0003 5.67194 21.0764 6.18422 21.0764 6.7417C21.0764 7.29918 21.0003 7.81145 20.8329 8.24839C20.6654 8.68534 20.4219 9.06201 20.1176 9.37842C19.7979 9.69482 19.4175 9.92083 18.9761 10.0866C18.5348 10.2523 18.0173 10.3276 17.4542 10.3276C16.8911 10.3276 16.3736 10.2523 15.9323 10.0866C15.4909 9.92083 15.1104 9.67976 14.7908 9.37842C14.4712 9.06201 14.243 8.68534 14.0755 8.24839C13.9081 7.81145 13.832 7.29918 13.832 6.7417C13.832 6.18422 13.9081 5.67194 14.0755 5.235C14.243 4.79806 14.4865 4.42139 14.7908 4.10498C15.1104 3.78857 15.4909 3.56257 15.9323 3.39683C16.3736 3.2311 16.8759 3.15576 17.4542 3.15576ZM17.4542 10.0715C17.6064 10.0715 17.7586 10.0263 17.926 9.92083C18.0782 9.81536 18.2151 9.64962 18.3369 9.39348C18.4586 9.13735 18.5652 8.80587 18.6413 8.384C18.7174 7.94706 18.763 7.40464 18.763 6.75677C18.763 6.09382 18.7174 5.55141 18.6413 5.12953C18.5652 4.70766 18.4586 4.36112 18.3369 4.12005C18.2151 3.87898 18.0782 3.69817 17.926 3.59271C17.7738 3.48724 17.6216 3.44203 17.4542 3.44203C17.302 3.44203 17.1498 3.48724 16.9824 3.59271C16.8302 3.69817 16.6932 3.86391 16.5715 4.12005C16.4497 4.37619 16.3432 4.70766 16.2671 5.12953C16.191 5.56648 16.1453 6.10889 16.1453 6.75677C16.1453 7.41971 16.191 7.96212 16.2671 8.384C16.3432 8.80587 16.4497 9.15241 16.5715 9.39348C16.6932 9.63456 16.8302 9.81536 16.9824 9.92083C17.1346 10.0112 17.2868 10.0715 17.4542 10.0715Z" fill="white"/>
<path d="M27.7257 0.640625C28.5476 0.640625 28.9585 1.04743 28.9585 1.86105V9.726L29.7803 9.92187V10.1177H28.5476C28.2128 10.1177 27.954 10.0725 27.7562 9.96708C27.5583 9.86161 27.3909 9.74107 27.2844 9.62054C27.1474 9.46987 27.0409 9.28906 26.98 9.10826C26.8583 9.34933 26.706 9.5452 26.5234 9.726C26.3712 9.87667 26.1581 10.0123 25.8994 10.1479C25.6407 10.2835 25.3363 10.3438 24.9863 10.3438C24.5906 10.3438 24.2253 10.2684 23.8905 10.1177C23.5404 9.96708 23.2513 9.74107 23.0078 9.43973C22.7643 9.13839 22.5512 8.76172 22.4143 8.32478C22.2621 7.87277 22.2012 7.36049 22.2012 6.75781C22.2012 6.15513 22.2773 5.64286 22.4143 5.19085C22.5665 4.73884 22.7643 4.37723 23.0382 4.07589C23.2969 3.77455 23.6166 3.54855 23.9818 3.39788C24.3471 3.24721 24.758 3.17188 25.2146 3.17188C25.4581 3.17188 25.6711 3.20201 25.869 3.24721C26.0668 3.30748 26.2342 3.36775 26.3712 3.44308C26.5386 3.51842 26.6756 3.60882 26.7973 3.71429V1.07757L25.9755 0.881696V0.685827H27.7257V0.640625ZM26.7669 4.10603C26.6604 4.00056 26.5691 3.91016 26.4473 3.83482C26.3408 3.75949 26.2343 3.69922 26.1125 3.63895C25.9908 3.57868 25.869 3.56362 25.732 3.56362C25.5646 3.56362 25.3972 3.60882 25.245 3.69922C25.0928 3.78962 24.971 3.94029 24.8493 4.16629C24.7428 4.3923 24.6515 4.72377 24.5906 5.13058C24.5297 5.55245 24.4993 6.0798 24.4993 6.74274C24.4993 7.39062 24.5297 7.9029 24.5906 8.30971C24.6515 8.71652 24.7276 9.03292 24.8341 9.25893C24.9254 9.48493 25.032 9.65067 25.1689 9.726C25.2907 9.80134 25.4124 9.84654 25.5342 9.84654C25.7472 9.84654 25.9298 9.78627 26.082 9.6808C26.2342 9.57533 26.356 9.43973 26.4625 9.30413C26.5843 9.13839 26.6908 8.95759 26.7822 8.76172V4.10603H26.7669Z" fill="white"/>
<path d="M34.3623 10.3433C33.1904 10.3433 32.2773 10.0269 31.6381 9.39404C30.9837 8.76123 30.6641 7.87228 30.6641 6.75732C30.6641 6.19985 30.7402 5.68757 30.9076 5.25063C31.075 4.81368 31.3033 4.43701 31.5925 4.1206C31.8816 3.8042 32.2316 3.57819 32.6578 3.41246C33.0687 3.24672 33.5253 3.17139 34.0275 3.17139C34.5449 3.17139 35.0015 3.24672 35.3972 3.38232C35.8082 3.53299 36.143 3.72887 36.4321 3.96994C36.7213 4.21101 36.9344 4.49728 37.0865 4.82875C37.2387 5.16023 37.3148 5.50677 37.3148 5.88344C37.3148 6.00398 37.3149 6.12451 37.2996 6.21491C37.2844 6.30532 37.2692 6.39572 37.254 6.47105C37.2235 6.56145 37.2083 6.63679 37.1779 6.69706C36.7822 6.77239 36.356 6.84773 35.8995 6.89293C35.519 6.95319 35.0776 6.9984 34.5754 7.02853C34.0732 7.05866 33.5557 7.0888 33.0078 7.0888C33.0078 7.64628 33.0535 8.11335 33.1296 8.49003C33.2057 8.8667 33.3274 9.16804 33.4644 9.37897C33.6166 9.60498 33.784 9.75565 33.9818 9.84605C34.1797 9.93645 34.408 9.98166 34.6363 9.98166C34.9102 9.98166 35.1689 9.93645 35.4124 9.83099C35.6559 9.72552 35.869 9.60498 36.0364 9.43924C36.2191 9.27351 36.356 9.07764 36.4626 8.8667C36.5691 8.65576 36.6148 8.44483 36.6148 8.21882H36.9496C36.9496 8.49003 36.8887 8.74616 36.767 9.0023C36.6452 9.25844 36.4626 9.48445 36.2343 9.68032C36.006 9.87619 35.732 10.0269 35.4124 10.1474C35.108 10.283 34.758 10.3433 34.3623 10.3433ZM32.9926 6.74226C33.297 6.74226 33.5709 6.74226 33.8144 6.72719C34.0579 6.71212 34.2558 6.69706 34.4232 6.68199C34.621 6.66692 34.7732 6.63679 34.9102 6.62172C34.9254 6.53132 34.9559 6.42585 34.9711 6.32038C34.9863 6.21491 35.0015 6.10944 35.0168 5.98891C35.032 5.86837 35.032 5.73277 35.032 5.59717C35.032 5.19036 35.0015 4.84382 34.9406 4.57262C34.8798 4.30141 34.8037 4.0754 34.6971 3.8946C34.6058 3.72886 34.4993 3.59326 34.3623 3.53299C34.2253 3.47273 34.1188 3.42753 33.9971 3.42753C33.8753 3.42753 33.7536 3.47273 33.6318 3.56313C33.5101 3.65353 33.4035 3.81927 33.297 4.04527C33.2057 4.28634 33.1144 4.61782 33.0535 5.05476C32.9926 5.4917 32.9926 6.04918 32.9926 6.74226Z" fill="white"/>
<path d="M43.0671 3.62493C42.7932 3.62493 42.5497 3.6852 42.3366 3.79067C42.1236 3.89614 41.9409 4.03174 41.7887 4.16734C41.6213 4.33308 41.4843 4.51388 41.3473 4.70975V9.72705L42.1692 9.92292V10.1188H38.334V9.92292L39.1558 9.72705V3.76053L38.334 3.56466V3.36879H39.5667C39.8863 3.36879 40.145 3.42906 40.3581 3.53453C40.556 3.64 40.7234 3.76053 40.8451 3.88107C40.9821 4.03174 41.0887 4.19747 41.1495 4.37828C41.2865 4.18241 41.4539 4.00161 41.6517 3.83587C41.8192 3.70027 42.0322 3.57973 42.291 3.45919C42.5497 3.33866 42.8389 3.29346 43.1889 3.29346C43.6759 3.29346 44.0412 3.41399 44.2847 3.62493C44.5282 3.85093 44.6347 4.16734 44.6347 4.57415C44.6347 4.87549 44.5434 5.13163 44.3608 5.31243C44.1781 5.49323 43.9194 5.58364 43.615 5.58364C43.5389 5.58364 43.478 5.58364 43.4019 5.58364C43.3258 5.58364 43.2802 5.56857 43.2346 5.56857C43.1737 5.5535 43.1128 5.5535 43.0671 5.52337V3.62493Z" fill="white"/>
<path d="M50.5251 5.38756C50.5251 5.08622 50.4947 4.81501 50.4338 4.58901C50.373 4.363 50.2969 4.1822 50.1904 4.0466C50.0991 3.89593 49.9925 3.79046 49.8555 3.73019C49.7338 3.66992 49.612 3.62472 49.4903 3.62472C49.2772 3.62472 49.0946 3.68499 48.9424 3.79046C48.7902 3.89593 48.6532 4.03153 48.5619 4.16713C48.4402 4.33287 48.3488 4.51367 48.2575 4.70954V9.72684L49.0794 9.92271V10.1186H45.2441V9.92271L46.0659 9.72684V3.76032L45.2441 3.56445V3.36858H46.4769C46.7965 3.36858 47.0552 3.42885 47.2683 3.53432C47.4661 3.63979 47.6335 3.76032 47.7553 3.88086C47.8923 4.03153 47.9988 4.19727 48.0596 4.37807C48.1814 4.15206 48.3336 3.94113 48.5163 3.76032C48.6684 3.60965 48.8815 3.47405 49.125 3.33845C49.3685 3.20285 49.6881 3.14258 50.0534 3.14258C50.4491 3.14258 50.8143 3.20285 51.1339 3.33845C51.4688 3.45899 51.7427 3.63979 51.971 3.83566C52.1993 4.0466 52.3819 4.2726 52.5189 4.54381C52.6559 4.81501 52.7167 5.08622 52.7167 5.37249V9.71178L53.5386 9.90765V10.1035H51.7579C50.9361 10.1035 50.5251 9.69671 50.5251 8.88309V5.38756Z" fill="white"/>
<path d="M1.625 19.639V19.0815H12.2023V19.639L9.9803 20.1965V31.5721H17.9551V20.1965L15.7331 19.639V19.0815H26.3105V19.639L24.0884 20.1965V43.701L26.3105 44.2584V44.8159H15.7331V44.2434L17.9551 43.6859V32.4911H9.9803V43.6859L12.2023 44.2434V44.8009H1.625V44.2434L3.84698 43.6859V20.1814L1.625 19.639Z" fill="white"/>
<path d="M39.4605 25.8774C40.9976 25.8774 42.3673 26.1034 43.5848 26.5404C44.8024 26.9773 45.8221 27.6252 46.6743 28.469C47.5266 29.3127 48.181 30.3373 48.6224 31.5426C49.0637 32.748 49.292 34.104 49.292 35.6258C49.292 37.1475 49.0637 38.5036 48.6224 39.7089C48.181 40.9143 47.5266 41.9238 46.6743 42.7675C45.8221 43.6113 44.7872 44.2591 43.5848 44.6961C42.3673 45.133 40.9976 45.359 39.4605 45.359C37.9233 45.359 36.5536 45.133 35.3361 44.6961C34.1186 44.2591 33.0989 43.6113 32.2466 42.7675C31.3943 41.9238 30.7399 40.8992 30.2986 39.7089C29.8572 38.5036 29.6289 37.1475 29.6289 35.6258C29.6289 34.104 29.8572 32.748 30.2986 31.5426C30.7399 30.3373 31.3943 29.3278 32.2466 28.469C33.0989 27.6101 34.1338 26.9773 35.3361 26.5404C36.5536 26.1034 37.9233 25.8774 39.4605 25.8774ZM39.4605 44.6057C39.8866 44.6057 40.2975 44.4701 40.7237 44.1989C41.1498 43.9277 41.5151 43.4606 41.8499 42.7826C42.1847 42.1046 42.4587 41.1855 42.6717 40.0253C42.8848 38.8652 42.9913 37.3886 42.9913 35.5956C42.9913 33.8027 42.8848 32.3261 42.6717 31.1659C42.4587 30.0058 42.1847 29.0867 41.8499 28.4087C41.5151 27.7307 41.1346 27.2636 40.7237 26.9924C40.3128 26.7212 39.8866 26.5856 39.4605 26.5856C39.0343 26.5856 38.6234 26.7212 38.1973 26.9924C37.7712 27.2636 37.4059 27.7307 37.071 28.4087C36.7362 29.0867 36.4623 30.0058 36.2492 31.1659C36.0362 32.3261 35.9296 33.8027 35.9296 35.5956C35.9296 37.3886 36.0362 38.8652 36.2492 40.0253C36.4623 41.1855 36.7362 42.1046 37.071 42.7826C37.4059 43.4606 37.7864 43.9277 38.1973 44.1989C38.6234 44.4701 39.0343 44.6057 39.4605 44.6057Z" fill="white"/>
<path d="M77.097 31.9352C77.097 31.0613 77.021 30.308 76.8688 29.7204C76.7166 29.1327 76.5339 28.6355 76.2904 28.2589C76.0469 27.8822 75.7882 27.611 75.5142 27.4302C75.2251 27.2644 74.9512 27.174 74.6772 27.174C74.2054 27.174 73.7945 27.3247 73.4292 27.626C73.064 27.9274 72.7596 28.2739 72.4856 28.6355C72.1965 29.0725 71.9225 29.5697 71.7095 30.097V43.6874L73.9467 44.2449V44.8024H63.5672V44.2449L65.7892 43.6874V31.9352C65.7892 31.0613 65.7131 30.308 65.5609 29.7204C65.4087 29.1327 65.2261 28.6355 64.9826 28.2589C64.7391 27.8822 64.4804 27.611 64.2064 27.4302C63.9173 27.2644 63.6433 27.174 63.3693 27.174C62.8975 27.174 62.4867 27.3247 62.1214 27.626C61.7561 27.9274 61.4517 28.2739 61.1778 28.6355C60.8734 29.0725 60.6147 29.5697 60.4016 30.097V43.6874L62.6236 44.2449V44.8024H52.2441V44.2449L54.4662 43.6874V27.5356L52.2441 26.9782V26.4207H55.5771C56.4446 26.4207 57.1599 26.5714 57.7078 26.8576C58.2709 27.1439 58.6971 27.4754 59.0319 27.8068C59.3972 28.2287 59.6711 28.6807 59.8537 29.1629C60.1733 28.5451 60.569 28.0027 61.0408 27.5055C61.4669 27.0836 61.9844 26.707 62.5932 26.3604C63.2172 26.0139 63.9629 25.8481 64.8608 25.8481C66.3371 25.8481 67.6307 26.1796 68.696 26.8275C69.7766 27.4754 70.5985 28.3191 71.1616 29.3437C71.4812 28.7109 71.8769 28.1383 72.3487 27.611C72.7748 27.174 73.2923 26.7672 73.901 26.4056C74.525 26.044 75.2707 25.8481 76.1687 25.8481C77.1883 25.8481 78.1015 26.0139 78.9538 26.3303C79.7908 26.6467 80.5214 27.0836 81.1301 27.6411C81.7389 28.1986 82.2107 28.8314 82.5455 29.5697C82.8803 30.308 83.0477 31.0914 83.0477 31.9201V43.6724L85.2697 44.2298V44.7873H80.4452C78.2232 44.7873 77.1122 43.6874 77.1122 41.4877V31.9352H77.097Z" fill="white"/>
<path d="M97.5064 45.3429C94.3408 45.3429 91.8753 44.4841 90.1251 42.7514C88.3749 41.0187 87.4922 38.6532 87.4922 35.6096C87.4922 34.0879 87.7205 32.7319 88.1618 31.5265C88.6032 30.3211 89.2272 29.3117 90.0186 28.4528C90.81 27.6091 91.7688 26.9612 92.895 26.5243C94.0212 26.0873 95.254 25.8613 96.578 25.8613C97.963 25.8613 99.211 26.0572 100.307 26.4489C101.403 26.8407 102.346 27.368 103.107 28.031C103.868 28.6939 104.462 29.4774 104.872 30.3663C105.283 31.2553 105.481 32.2045 105.481 33.214C105.481 33.5605 105.466 33.8619 105.42 34.118C105.375 34.3742 105.344 34.6002 105.283 34.796C105.207 35.0371 105.146 35.248 105.101 35.4138C104.005 35.6398 102.864 35.8206 101.646 35.9713C100.611 36.1219 99.4088 36.2425 98.0543 36.363C96.6998 36.4685 95.2692 36.5287 93.7929 36.5287C93.7929 38.0505 93.8995 39.3161 94.1278 40.3256C94.3561 41.3351 94.6604 42.1487 95.0561 42.7514C95.4518 43.3541 95.9236 43.7759 96.4715 44.0321C97.0194 44.2882 97.6129 44.4238 98.2521 44.4238C98.9979 44.4238 99.698 44.2882 100.352 44.017C101.007 43.7458 101.57 43.3842 102.057 42.9322C102.544 42.4802 102.924 41.9679 103.214 41.3954C103.503 40.8228 103.64 40.2352 103.64 39.6476H104.568C104.568 40.3859 104.401 41.094 104.066 41.772C103.731 42.4651 103.259 43.0678 102.635 43.5951C102.011 44.1225 101.281 44.5444 100.413 44.8608C99.5306 45.1772 98.5565 45.3429 97.5064 45.3429ZM93.7929 35.6096C94.63 35.6096 95.3757 35.5946 96.0149 35.5494C96.6541 35.5042 97.202 35.474 97.6434 35.4288C98.1608 35.3836 98.6022 35.3234 98.9827 35.248C99.0283 35.007 99.0892 34.7358 99.1653 34.4344C99.211 34.1632 99.2566 33.8619 99.287 33.5304C99.3175 33.1989 99.3479 32.8524 99.3479 32.4908C99.3479 31.3909 99.2566 30.4718 99.0892 29.7185C98.9218 28.9651 98.6935 28.3624 98.4348 27.8954C98.176 27.4283 97.8717 27.0968 97.5521 26.9009C97.2173 26.7051 96.8824 26.5996 96.5628 26.5996C96.2432 26.5996 95.9084 26.7201 95.5736 26.9461C95.2387 27.1872 94.9496 27.6242 94.6909 28.272C94.4321 28.9199 94.2191 29.839 94.0365 31.0142C93.8843 32.1894 93.7929 33.7263 93.7929 35.6096Z" fill="white"/>
<path d="M123.698 44.4252V29.524L110.396 19.0977V44.4252H123.698Z" fill="white"/>
<path d="M140.151 44.4252V29.524L127.062 19.0977V44.4252H140.151Z" fill="white"/>
</svg>
