<svg width="175" height="46" viewBox="0 0 175 46" fill="none" xmlns="http://www.w3.org/2000/svg">
<path d="M37.6194 45.5755H9.02641C4.32762 45.5755 0.519531 41.8055 0.519531 37.1537V8.84663C0.519531 4.19482 4.32762 0.424805 9.02641 0.424805H37.6194C42.3182 0.424805 46.1263 4.19482 46.1263 8.84663V37.1537C46.1263 41.8055 42.3182 45.5755 37.6194 45.5755Z" fill="white"/>
<path d="M31.5389 23.4154C32.3521 24.425 32.7652 25.6007 32.7652 26.9298C32.7652 28.8851 32.1069 30.4187 30.7902 31.505C29.4735 32.5912 27.5888 33.1536 25.1362 33.1536H14.4219V10.3418H24.878C27.2274 10.3418 29.0346 10.853 30.3126 11.8626C31.5906 12.8722 32.236 14.3163 32.236 16.1821C32.236 17.5623 31.8616 18.6997 31.1258 19.6199C30.39 20.54 29.4219 21.1279 28.2214 21.409C29.6284 21.7413 30.7256 22.4058 31.5389 23.4154ZM19.9856 19.671H23.6387C25.5751 19.671 26.5432 18.8531 26.5432 17.2173C26.5432 15.5815 25.5492 14.7636 23.5742 14.7636H19.9856V19.671ZM27.0595 26.1631C27.0595 25.3452 26.7885 24.7062 26.2463 24.2461C25.7042 23.786 24.9296 23.556 23.9356 23.556H19.9985V28.6807H23.9744C26.0269 28.6679 27.0595 27.8372 27.0595 26.1631Z" fill="white"/>
<path d="M72.551 33.1536L67.5682 24.54H66.3032V33.1536H60.7266V10.3418H70.2403C72.0605 10.3418 73.6095 10.6485 74.8617 11.2747C76.1268 11.9009 77.0691 12.7572 77.7016 13.8434C78.3341 14.9297 78.644 16.1693 78.644 17.5751C78.644 19.2365 78.1792 20.6422 77.2627 21.8052C76.3333 22.9681 75.0037 23.7605 73.2352 24.195L78.7085 33.1663H72.551V33.1536ZM66.3032 20.77H69.7498C70.8599 20.77 71.6732 20.5272 72.1896 20.0416C72.7059 19.556 72.977 18.8403 72.977 17.8946C72.977 16.9872 72.7059 16.2844 72.1766 15.7604C71.6474 15.2492 70.8341 14.9808 69.7498 14.9808H66.3032V20.77Z" fill="white"/>
<path d="M103.869 29.0009H95.2329L93.8001 33.1671H87.9395L96.3818 10.5215H102.797L111.24 33.1671H105.315L103.869 29.0009ZM102.436 24.7964L99.5703 16.4129L96.6658 24.7964H102.436Z" fill="white"/>
<path d="M142.001 33.1536H136.424L127.104 19.147V33.1536H121.527V10.3418H127.104L136.424 24.4761V10.3418H142.001V33.1536Z" fill="white"/>
<path d="M173.265 27.6587C172.297 29.3839 170.903 30.7386 169.095 31.7099C167.275 32.6811 165.145 33.1667 162.693 33.1667H153.992V10.355H162.693C165.171 10.355 167.314 10.8278 169.108 11.7735C170.916 12.7192 172.297 14.0483 173.265 15.7736C174.233 17.4988 174.711 19.4669 174.711 21.7161C174.711 23.9398 174.22 25.9207 173.265 27.6587ZM167.262 26.5085C168.463 25.3711 169.07 23.7609 169.07 21.7033C169.07 19.633 168.463 18.0356 167.262 16.8982C166.062 15.7608 164.371 15.1857 162.189 15.1857H159.556V28.221H162.189C164.371 28.221 166.062 27.6587 167.262 26.5085Z" fill="white"/>
</svg>
