<svg width="150" height="25" viewBox="0 0 150 25" fill="none" xmlns="http://www.w3.org/2000/svg">
<path d="M16.4939 2.06564L17.6354 1.82457C17.9245 1.82457 18.168 1.88484 18.3355 2.00537C18.5029 2.12591 18.5942 2.24644 18.5942 2.35191C18.5942 2.45738 18.5637 2.62312 18.5181 2.81899C18.4724 3.01486 18.0463 5.03383 17.2549 8.84577C16.4635 12.6577 15.8852 15.5054 15.5199 17.3737C17.2853 14.9931 19.3551 12.0701 21.7141 8.58964C24.0731 5.10917 25.458 2.80392 25.8537 1.65883C25.9755 1.29722 26.1429 1.02602 26.3407 0.830149C26.5386 0.634278 26.7212 0.513743 26.8734 0.483609C27.0256 0.453475 27.2691 0.42334 27.5887 0.42334C27.9083 0.42334 28.2888 0.498677 28.7301 0.634279C29.1715 0.769882 29.3998 0.995885 29.3998 1.32736C29.3998 1.93004 28.4866 3.69287 26.6755 6.58573C24.8645 9.47859 22.7795 12.5522 20.4357 15.8067C18.092 19.0612 16.1439 21.6376 14.5763 23.5361C14.3024 23.8675 13.9523 24.0483 13.5566 24.0483C13.1609 24.0483 12.7348 23.973 12.2934 23.8374C11.8521 23.7018 11.6238 23.4607 11.6238 23.0991C11.6238 21.9691 12.6283 16.5149 14.6372 6.76653C12.9174 8.96631 10.8324 12.04 8.38212 15.9724C5.8253 20.0405 4.37949 22.5718 4.04467 23.5361C3.86204 24.1237 3.64897 24.4702 3.40547 24.5606C3.23806 24.636 3.05542 24.6661 2.87279 24.6661L1.64004 24.8017C1.39653 24.8017 1.18346 24.7414 0.970394 24.6058C0.772545 24.4702 0.666016 24.3346 0.666016 24.1839C0.666016 23.7771 1.24435 22.5416 2.38579 20.4925C3.52722 18.4434 4.88172 16.2135 6.41885 13.8028C7.95599 11.3921 9.55401 9.05671 11.2281 6.7816C12.9022 4.50649 14.1959 2.96966 15.109 2.20124C15.2916 2.03551 15.5047 1.96017 15.7482 1.96017L16.4939 2.06564Z" fill="white"/>
<path d="M34.7869 12.2813C35.5783 12.2813 35.974 12.5525 35.974 13.0799C35.974 13.3661 35.9131 13.5771 35.7761 13.7127C35.6391 13.8483 35.35 14.2852 34.9086 15.0536C34.4673 15.807 33.9802 16.7713 33.4476 17.9616C32.9149 19.1368 32.5649 20.1463 32.4127 20.975C32.3822 21.0804 32.367 21.216 32.367 21.4119C32.367 21.9844 32.5192 22.2556 32.8388 22.2556C33.1584 22.2556 33.5237 22.105 33.9498 21.8187C34.3759 21.5174 34.7564 21.216 35.0912 20.8695C35.4261 20.538 35.7457 20.1915 36.0653 19.8449C36.3849 19.4984 36.5675 19.2875 36.6284 19.2423C36.6893 19.1971 36.7806 19.1669 36.9023 19.1669C37.1002 19.1669 37.2219 19.3176 37.2676 19.6189C37.3133 19.9203 37.3285 20.2216 37.3285 20.5531C37.3285 20.8846 37.298 21.0955 37.2371 21.216C36.9328 21.8036 36.2783 22.5118 35.2434 23.3405C34.2238 24.1692 33.2802 24.576 32.4431 24.576C31.6061 24.576 30.9821 24.3198 30.6016 23.8226C30.2211 23.3254 30.008 22.7529 30.008 22.1502C30.008 21.5324 30.1146 21.0051 30.3277 20.538C29.4602 21.653 28.4709 22.5871 27.3599 23.3706C26.2337 24.139 25.3358 24.5308 24.6205 24.5308C23.9052 24.5308 23.3421 24.3198 22.8855 23.8979C22.3072 23.3706 22.0332 22.6474 22.0332 21.7132C22.0332 20.7791 22.2463 19.8449 22.6724 18.8957C23.0985 17.9616 23.6464 17.0877 24.3313 16.3193C25.0162 15.5358 25.7771 14.8276 26.5989 14.1948C28.3187 12.8539 29.9167 12.1909 31.3778 12.1909C31.9409 12.1909 32.3975 12.2813 32.7475 12.4621C33.0975 12.6429 33.3258 12.884 33.4171 13.1552C33.6607 12.7785 33.8737 12.5525 34.0563 12.4471C34.1933 12.3265 34.452 12.2813 34.7869 12.2813ZM32.7171 13.999C30.9364 13.999 29.0949 14.9783 27.1925 16.937C26.5229 17.6452 25.8989 18.4738 25.3205 19.4532C24.7422 20.4325 24.4683 21.0955 24.4683 21.4571C24.4683 21.8187 24.5748 21.9995 24.7879 21.9995C25.0771 21.9995 25.8837 21.427 27.2229 20.2969C28.5622 19.1669 29.4449 18.3232 29.8711 17.7808C30.3581 17.1781 31.3017 15.9125 32.7171 13.999Z" fill="white"/>
<path d="M46.6285 4.11377L47.2677 4.26444C47.359 4.26444 47.4504 4.30964 47.5112 4.40004C47.5873 4.49044 47.6178 4.58085 47.6178 4.65618C47.6178 4.73152 47.5112 4.95752 47.283 5.31913C47.0547 5.68073 46.8111 6.08754 46.5068 6.53955C46.2024 6.99156 46.0502 7.2477 46.035 7.2929C46.8416 7.23263 47.4199 7.2025 47.7547 7.2025C48.0896 7.2025 48.3178 7.23263 48.4548 7.27783C48.5766 7.32303 48.7288 7.45864 48.8809 7.66957C49.0484 7.88051 49.1853 8.04625 49.3223 8.15172C49.4593 8.25719 49.5202 8.42292 49.5202 8.63386C49.5202 8.8448 49.3832 9.04067 49.1245 9.17627C48.8657 9.32694 48.5766 9.41734 48.2722 9.44748C45.8523 9.68855 44.5283 9.80908 44.2848 9.82415C43.4477 11.1048 42.2606 13.0937 40.7539 15.7907C39.2472 18.4877 38.4406 20.1902 38.3493 20.8682C38.3036 21.1846 38.2884 21.4257 38.2884 21.6216C38.2884 22.0284 38.5015 22.2243 38.9276 22.2243C39.3538 22.2243 39.8255 22.0585 40.343 21.7421C40.8604 21.4106 41.3475 21.0641 41.7736 20.6874C42.9455 19.6629 43.5695 19.1355 43.6456 19.1355C43.9195 19.1355 44.0565 19.6026 44.0565 20.5217C44.0565 21.0189 43.8282 21.4709 43.3564 21.8777C42.3063 22.7667 41.4236 23.4447 40.7083 23.8967C39.993 24.3487 39.2777 24.5747 38.5471 24.5747C38.395 24.5747 38.2428 24.5596 38.1058 24.5295C37.2687 24.3788 36.66 24.0775 36.2795 23.6255C35.8838 23.1735 35.7012 22.5708 35.7012 21.8175C35.7012 21.0641 35.9295 20.13 36.386 19.0451C36.8426 17.9603 37.4057 16.8002 38.0906 15.5797C39.2168 13.5758 40.343 11.7075 41.454 9.95975L40.8605 10.0351C39.6582 10.1707 38.9581 10.231 38.7602 10.231H38.6232C38.3189 10.231 38.0297 10.1707 37.7557 10.0502C37.4818 9.92962 37.3296 9.77895 37.3296 9.61321C37.3296 9.43241 37.4057 9.26667 37.5579 9.10093C37.7101 8.9352 37.8014 8.79959 37.8318 8.70919C37.9079 8.48319 38.1819 8.22705 38.6537 7.95584C39.1255 7.68464 39.4755 7.53397 39.719 7.5189C39.9625 7.50384 40.1908 7.48877 40.4191 7.4737C40.6474 7.45864 40.8909 7.45863 41.1648 7.44357C41.4388 7.4285 41.6519 7.4285 41.804 7.41344L43.2042 7.35317C44.0717 6.05741 44.6805 5.21366 45.0001 4.85205C45.3349 4.47538 45.5175 4.27951 45.5632 4.24937C45.6088 4.21924 45.7154 4.1891 45.8828 4.1891L46.6285 4.11377Z" fill="white"/>
<path d="M55.987 19.1672C56.1848 19.1672 56.3066 19.3179 56.3522 19.6192C56.3979 19.9206 56.4131 20.2219 56.4131 20.5534C56.4131 20.8848 56.3827 21.0958 56.3218 21.2163C56.0174 21.7889 55.363 22.497 54.3433 23.3257C53.3236 24.1544 52.3496 24.5762 51.4365 24.5762C50.8734 24.5762 50.3559 24.4105 49.8689 24.079C49.3971 23.7476 49.1536 23.1599 49.1536 22.3313C49.1536 21.5026 49.3819 20.6739 49.8232 19.8753C47.236 23.0846 45.227 24.6817 43.7508 24.6817C43.1725 24.6817 42.7007 24.4708 42.3354 24.064C41.9702 23.6572 41.8027 23.2353 41.8027 22.7833C41.8027 22.3463 41.8636 21.8943 41.9854 21.4272C42.1071 20.9602 42.2441 20.5383 42.3811 20.1616C42.518 19.785 42.7311 19.3329 43.005 18.7905C43.279 18.2481 43.4921 17.8564 43.6138 17.6002C43.7356 17.3441 43.9638 16.9825 44.2682 16.4853C44.5726 15.9881 44.9531 15.3101 45.4401 14.4663C45.9271 13.6226 46.3228 12.9897 46.6424 12.5829C46.962 12.1761 47.2664 11.9652 47.5708 11.9652C47.8752 11.9652 48.1339 12.0857 48.3622 12.3268C48.5905 12.5679 48.7122 12.7788 48.7122 12.9295C48.7122 13.0801 48.3622 13.7732 47.6621 15.0087C45.6075 18.7001 44.5726 20.8396 44.5726 21.4574C44.5726 21.608 44.6335 21.6834 44.74 21.6834C45.2423 21.6834 46.4902 20.6136 48.4687 18.4741C50.4472 16.3346 51.6039 14.9635 51.9235 14.3608C52.2431 13.7582 52.5322 13.2459 52.8366 12.8391C53.1258 12.4323 53.3541 12.1761 53.5063 12.0857C53.9476 11.7995 54.526 11.6488 55.2413 11.6187C55.363 11.6187 55.4391 11.6187 55.5 11.6337C55.5609 11.6488 55.6369 11.7392 55.713 11.8899C55.7891 12.0405 55.8348 12.1761 55.8348 12.2816C55.7435 12.5679 55.3326 13.3363 54.5868 14.5868C53.8563 15.8374 53.4454 16.5455 53.3693 16.6962C52.1366 19.2124 51.5278 20.8547 51.5278 21.6081C51.5278 22.045 51.6952 22.2559 52.03 22.2559C52.6388 22.1806 53.3693 21.6985 54.2216 20.8246C54.5412 20.5082 54.8456 20.1767 55.1499 19.8452C55.4543 19.5137 55.6522 19.3179 55.713 19.2727C55.7891 19.1973 55.8805 19.1672 55.987 19.1672Z" fill="white"/>
<path d="M60.5065 15.5958C62.9568 12.8386 65.0571 11.4524 66.7768 11.4524C67.203 11.4524 67.553 11.573 67.8269 11.8291C68.1009 12.0852 68.2378 12.4016 68.2378 12.8085C68.2378 13.2153 67.9487 13.8782 67.3704 14.8274C66.792 15.7616 66.2594 16.5601 65.7724 17.208C65.5136 17.5395 65.2245 17.7052 64.8896 17.7052C64.57 17.7052 64.3113 17.5847 64.1287 17.3436C63.9461 17.1025 63.8547 16.8313 63.8547 16.5149C63.8547 15.8068 64.2352 14.9932 65.0114 14.1042L64.9809 14.0741C64.6309 14.1042 63.7939 14.7822 62.4241 16.078C61.0696 17.3888 59.913 18.564 58.9542 19.5886C58.0106 20.6282 56.9757 21.8788 55.8495 23.3704C55.5299 23.8073 55.2559 24.0333 55.0276 24.0333C54.7993 24.0333 54.5102 23.958 54.1449 23.8224C53.7797 23.6868 53.5514 23.5813 53.4753 23.5211C53.3992 23.4608 53.3535 23.3553 53.3535 23.2047C53.3535 23.0691 53.3992 22.8883 53.4753 22.7075C53.5514 22.5116 53.7188 22.2404 53.9319 21.8938C54.1449 21.5473 54.495 20.9747 54.9515 20.1913C55.4081 19.4078 56.1082 18.2175 57.067 16.6355C58.0258 15.0534 58.5889 14.0891 58.7868 13.7577C59.1825 13.0797 59.5021 12.5824 59.7608 12.2811C60.2326 11.6935 61.024 11.4072 62.135 11.4072C62.3785 11.4072 62.5155 11.5579 62.5155 11.8743C62.5155 12.3564 62.0589 13.2755 61.1609 14.6014L60.5065 15.5958Z" fill="white"/>
<path d="M77.2936 12.463C77.2936 13.141 77.0197 13.7437 76.4566 14.2559C75.8934 14.7682 75.2695 15.0243 74.5542 15.0243C74.3259 15.0243 74.1737 14.9641 74.0976 14.8586C74.0215 14.7531 73.991 14.6025 73.991 14.4367C73.991 14.271 74.0063 14.0902 74.0519 13.9245C73.6714 14.045 73.2605 14.2409 72.8039 14.497C72.3474 14.7531 71.7843 15.1298 71.1146 15.6421C70.445 16.1544 70.1102 16.516 70.1102 16.7721C70.1102 16.8475 70.2319 16.8927 70.4754 16.8927C70.7189 16.8927 71.0994 16.8023 71.6016 16.6365C72.1039 16.4708 72.4691 16.3804 72.667 16.3804C72.8648 16.3804 73.0018 16.3954 73.0627 16.4105C73.1996 16.4858 73.3366 16.6365 73.504 16.8776C73.6562 17.1187 73.7323 17.3145 73.7323 17.4501C73.7323 17.5857 73.5954 17.7665 73.3214 17.9925C73.0475 18.2185 72.7431 18.3843 72.4083 18.5048C72.0582 18.6254 71.8299 18.7158 71.7234 18.776C69.5318 19.9964 68.4361 20.8251 68.4361 21.2771C68.4361 22.0757 69.1209 22.4825 70.5059 22.4825C71.3886 22.4825 72.2865 22.2113 73.1692 21.6538C73.9302 21.1867 74.615 20.7046 75.2238 20.2074C75.8326 19.7252 76.213 19.4239 76.3805 19.3034C76.5479 19.1828 76.6696 19.1376 76.7457 19.1376C77.0197 19.1376 77.1566 19.439 77.1566 20.0416C77.1566 20.6443 77.1262 21.0361 77.0501 21.2169C76.974 21.4127 76.7762 21.6387 76.4261 21.925C74.2041 23.718 72.0887 24.622 70.1102 24.622C69.0448 24.622 68.2078 24.4713 67.5686 24.1851C66.3967 23.6577 65.8184 22.8592 65.8184 21.7743C65.8184 20.3581 66.8076 19.2732 68.8013 18.55C68.4056 18.3692 68.1469 18.1583 68.0404 17.872C67.9186 17.6008 67.873 17.1639 67.873 16.5612C67.873 15.9585 68.1621 15.3257 68.7252 14.6477C69.2883 13.9697 69.9884 13.4122 70.8102 12.9903C72.6365 12.011 74.2802 11.5288 75.7108 11.5288C76.0609 11.5288 76.3957 11.6041 76.7609 11.7699C77.1262 11.9356 77.2936 12.1616 77.2936 12.463Z" fill="white"/>
<path d="M112.815 1.9744H113.013C113.074 1.9744 113.12 1.9744 113.135 1.98947C113.15 2.00454 113.165 2.00454 113.196 2.0196C113.226 2.0196 113.241 2.03467 113.272 2.0648C113.317 2.11 113.394 2.1552 113.485 2.2004C113.607 2.29081 113.668 2.39628 113.668 2.51681C113.668 2.63735 113.546 2.89349 113.302 3.28523C113.059 3.67697 112.435 4.62619 111.415 6.16302C109.087 9.68869 107.002 12.9733 105.16 15.9867C101.979 21.23 100.366 23.8667 100.336 23.8968C100.305 23.927 100.29 23.9571 100.275 23.9872C100.259 24.0475 100.229 24.0776 100.153 24.0776L99.9398 24.0324L99.5137 24.1379L99.2702 24.0927L99.0115 24.1379H98.9201L98.0527 24.2584C97.5352 24.2584 97.2765 24.0776 97.2765 23.7311C97.2765 23.5804 97.3221 23.3996 97.4134 23.1887C97.733 22.4353 99.3615 19.7082 102.284 14.9772C100.366 15.0224 98.4636 15.0525 96.5916 15.0525L93.2434 15.0375C92.6955 15.9113 91.9346 17.1468 90.9757 18.759C88.9059 22.2696 87.8102 24.0324 87.6732 24.0626C87.5362 24.0927 87.4297 24.1228 87.3384 24.1228C87.2471 24.1228 87.171 24.0776 87.1101 23.9722C87.034 23.8818 86.9883 23.8215 86.9579 23.8215C86.9274 23.8215 86.8818 23.8366 86.7905 23.8818C86.7144 23.927 86.5926 23.942 86.4252 23.942L86.06 23.927L85.923 23.8366C85.9078 23.8366 85.8926 23.8516 85.8773 23.8818C85.8621 23.9119 85.8165 23.927 85.7556 23.927C85.3142 23.927 85.0859 23.7462 85.0859 23.3695C85.0859 23.1284 85.1772 22.7969 85.3447 22.3901C85.5273 21.9833 85.7556 21.5464 86.0448 21.0793C86.3339 20.6122 87.0644 19.4822 88.2667 17.7194C89.4538 15.9565 90.0474 15.0676 90.0474 15.0525C89.8495 15.0375 89.6212 15.0375 89.3625 15.0224C88.8298 15.0224 88.4646 15.0073 88.2363 14.9621C87.6427 14.8567 87.2318 14.3745 87.0188 13.5157C86.897 13.0938 86.8514 12.8226 86.8666 12.687C86.8666 12.4158 86.9883 12.2651 87.2318 12.2651L87.6427 12.3706C87.8558 12.3857 88.3428 12.4007 89.1342 12.4459C89.9256 12.4911 90.4887 12.5062 90.8388 12.5062L91.7215 12.4761C93.076 10.3818 94.6892 8.00119 96.5764 5.3494C95.2067 6.46436 93.6848 7.02183 92.0107 7.02183C91.2193 7.02183 90.5344 6.84103 89.9713 6.46435C89.3929 6.08768 89.119 5.60554 89.119 5.033C89.119 4.46045 89.3321 4.00844 89.7734 3.6619C90.2148 3.33043 90.6257 3.16469 91.0214 3.16469C91.4171 3.16469 91.6149 3.22496 91.6149 3.34549C91.6149 3.3907 91.5541 3.4359 91.4475 3.4811C91.341 3.54136 91.2801 3.58657 91.2801 3.63177C91.2801 3.7975 91.4628 3.94817 91.828 4.06871C92.1933 4.18924 92.6042 4.26458 93.0608 4.26458C93.5173 4.26458 94.0652 4.12898 94.7349 3.87284C95.4045 3.6167 96.0894 3.27016 96.8047 2.86335C97.8091 2.29081 98.6005 1.80866 99.1789 1.43199C99.5137 1.26625 99.8181 1.19092 100.122 1.19092C100.427 1.19092 100.625 1.22105 100.762 1.29639C100.899 1.35665 100.99 1.43199 101.051 1.49226C101.112 1.55253 101.188 1.64293 101.249 1.7484C101.325 1.85387 101.386 1.94427 101.462 1.98947C101.523 2.04974 101.568 2.11 101.568 2.18534C101.568 2.26067 101.523 2.36614 101.447 2.53188C101.37 2.68255 100.975 3.31536 100.259 4.41525C99.5441 5.51514 98.6158 6.91636 97.4895 8.61893C96.3633 10.3215 95.5415 11.5721 95.024 12.3857C97.8092 12.3857 100.807 12.3405 104.034 12.235C107.96 6.10275 110.03 2.89349 110.243 2.59215C110.456 2.29081 110.654 2.09494 110.837 2.00454C111.019 1.91413 111.232 1.86893 111.491 1.86893L112.815 1.9744Z" fill="white"/>
<path d="M117.899 12.2507C118.219 12.2507 118.539 12.3863 118.858 12.6726C119.193 12.9588 119.345 13.3807 119.345 13.9533C119.345 14.5258 119.147 15.2641 118.736 16.1832C118.325 17.0872 117.778 18.0213 117.062 18.9706C116.362 19.9047 115.571 20.7937 114.734 21.6223C113.881 22.451 112.968 23.1291 111.994 23.6564C111.005 24.1837 110.122 24.4549 109.316 24.4549C108.509 24.4549 107.87 24.1988 107.383 23.7016C106.896 23.2044 106.652 22.5113 106.652 21.6223C106.652 20.7334 106.881 19.739 107.322 18.6692C107.763 17.5844 108.326 16.6352 109.027 15.8065C109.727 14.9778 110.472 14.2395 111.294 13.5766C112.984 12.2206 114.475 11.5576 115.753 11.5576C116.332 11.5576 116.758 11.6932 117.047 11.9795C117.154 12.0699 117.199 12.1603 117.199 12.2206V12.311C117.367 12.2507 117.595 12.2507 117.899 12.2507ZM116.332 14.2998H116.225C115.86 14.2998 115.677 14.0437 115.677 13.5163C114.916 13.7574 114.125 14.1943 113.288 14.8121C112.451 15.4298 111.705 16.1681 111.051 17.0119C109.711 18.6994 109.042 20.1307 109.027 21.2909C109.027 21.8634 109.24 22.1497 109.666 22.1497C110.092 22.1497 110.731 21.8634 111.568 21.321C112.405 20.7786 113.242 19.9801 114.079 18.9404C114.901 17.9159 115.525 17.0119 115.936 16.2585C116.347 15.5052 116.56 14.9929 116.56 14.7066C116.545 14.4354 116.469 14.2998 116.332 14.2998Z" fill="white"/>
<path d="M119.01 24.1094L118.249 24.0792H117.975C117.869 24.0491 117.762 23.9888 117.641 23.8984C117.519 23.808 117.428 23.7327 117.367 23.7026C117.306 23.6724 117.275 23.582 117.275 23.4766C117.275 23.3711 117.321 23.1752 117.397 22.9191C119.421 18.5045 121.385 14.9637 123.287 12.327C123.5 12.0407 123.835 11.8147 124.291 11.6641C124.748 11.5134 125.205 11.4381 125.646 11.4381C125.905 11.4381 126.042 11.6339 126.042 12.0407C126.042 12.1613 125.996 12.3119 125.92 12.4927C125.844 12.6886 125.631 12.99 125.296 13.4269C124.961 13.8638 124.565 14.361 124.109 14.9035C123.652 15.4459 123.394 15.7773 123.333 15.8677C124.763 14.4062 126.042 13.3214 127.198 12.5982C128.355 11.8901 129.177 11.5285 129.694 11.5285C130.212 11.5285 130.607 11.6791 130.881 11.9654C131.155 12.2517 131.292 12.5681 131.292 12.8996C131.292 13.231 131.262 13.5173 131.216 13.7282C131.17 13.9542 131.079 14.1802 130.957 14.4213C130.836 14.6624 130.729 14.8733 130.638 15.0391C130.546 15.2048 130.394 15.4308 130.196 15.702C129.983 15.9732 129.846 16.1691 129.77 16.2746C129.694 16.38 129.527 16.5759 129.283 16.8622C129.04 17.1484 128.903 17.3142 128.888 17.3443C129.177 17.058 129.588 16.6362 130.105 16.0636C130.623 15.4911 131.064 15.024 131.429 14.6473C131.794 14.2707 132.236 13.8337 132.784 13.3516C133.332 12.8694 133.834 12.4777 134.29 12.1914C135.417 11.4983 136.558 11.1367 137.715 11.1367C138.11 11.1367 138.445 11.2573 138.719 11.5134C138.993 11.7695 139.13 12.0558 139.13 12.4023C139.13 12.7489 138.704 13.5776 137.867 14.8733C137.03 16.1691 136.178 17.4799 135.341 18.7907C134.503 20.1016 134.077 20.9302 134.077 21.2768C134.077 21.7439 134.169 22.0301 134.336 22.1205C134.519 22.2109 134.732 22.2411 134.975 22.226C135.219 22.2109 135.584 22.0452 136.025 21.7439C136.482 21.4425 136.878 21.1412 137.228 20.8097C137.806 20.2974 138.323 19.8002 138.826 19.3181C138.932 19.2277 139.039 19.1825 139.176 19.1825C139.374 19.1825 139.495 19.3331 139.541 19.6345C139.587 19.9358 139.602 20.2372 139.602 20.5686C139.602 20.9001 139.571 21.1111 139.511 21.2316C139.206 21.8041 138.537 22.5123 137.517 23.356C136.482 24.1847 135.493 24.6066 134.549 24.6066C134.427 24.6066 134.351 24.6066 134.306 24.5915C133.24 24.4861 132.495 24.1998 132.084 23.7176C131.673 23.2355 131.475 22.6629 131.475 22.0151C131.475 21.3672 131.703 20.5536 132.16 19.6194C132.616 18.6853 133.103 17.8264 133.651 17.0731C134.199 16.3198 134.686 15.6267 135.143 15.0089C135.599 14.3912 135.828 14.0597 135.828 14.0145C135.828 13.9693 135.782 13.9392 135.706 13.9392C135.386 13.9392 134.671 14.4515 133.545 15.4911C131.642 17.2539 129.999 18.9565 128.614 20.5837C128.248 21.0206 127.381 22.1055 126.026 23.8683C125.874 24.0792 125.616 24.1847 125.281 24.1847C124.946 24.1847 124.596 24.1244 124.231 23.9888C123.865 23.8532 123.683 23.6875 123.683 23.4916C123.683 23.3862 124.504 21.9397 126.163 19.1523C127.822 16.365 128.644 14.8432 128.644 14.6021C128.644 14.346 128.492 14.2254 128.188 14.2254C127.883 14.2254 127.244 14.6775 126.285 15.5815C123.652 18.0675 121.613 20.5536 120.167 23.0095C120.076 23.1602 119.893 23.3862 119.619 23.6875C119.345 23.9888 119.102 24.1094 119.01 24.1094Z" fill="white"/>
<path d="M149.19 12.463C149.19 13.141 148.916 13.7437 148.353 14.2559C147.79 14.7682 147.166 15.0243 146.451 15.0243C146.222 15.0243 146.07 14.9641 145.994 14.8586C145.918 14.7531 145.888 14.6025 145.888 14.4367C145.888 14.271 145.903 14.0902 145.948 13.9245C145.568 14.045 145.157 14.2409 144.7 14.497C144.244 14.7531 143.681 15.1298 143.011 15.6421C142.341 16.1544 142.007 16.516 142.007 16.7721C142.007 16.8475 142.128 16.8927 142.372 16.8927C142.615 16.8927 142.996 16.8023 143.498 16.6365C144 16.4708 144.366 16.3804 144.563 16.3804C144.761 16.3804 144.898 16.3954 144.959 16.4105C145.096 16.4858 145.233 16.6365 145.401 16.8776C145.553 17.1187 145.629 17.3145 145.629 17.4501C145.629 17.5857 145.492 17.7665 145.218 17.9925C144.944 18.2185 144.64 18.3843 144.305 18.5048C143.955 18.6254 143.726 18.7158 143.62 18.776C141.428 19.9964 140.333 20.8251 140.333 21.2771C140.333 22.0757 141.017 22.4825 142.402 22.4825C143.285 22.4825 144.183 22.2113 145.066 21.6538C145.827 21.1867 146.512 20.7046 147.12 20.2074C147.729 19.7252 148.11 19.4239 148.277 19.3034C148.444 19.1828 148.566 19.1376 148.642 19.1376C148.916 19.1376 149.053 19.439 149.053 20.0416C149.053 20.6443 149.023 21.0361 148.947 21.2169C148.87 21.4127 148.673 21.6387 148.323 21.925C146.101 23.718 143.985 24.622 142.007 24.622C140.941 24.622 140.104 24.4713 139.465 24.1851C138.293 23.6577 137.715 22.8592 137.715 21.7743C137.715 20.3581 138.704 19.2732 140.698 18.55C140.302 18.3692 140.043 18.1583 139.937 17.872C139.815 17.6008 139.769 17.1639 139.769 16.5612C139.769 15.9585 140.059 15.3257 140.622 14.6477C141.185 13.9697 141.885 13.4122 142.707 12.9903C144.533 12.011 146.177 11.5288 147.607 11.5288C147.957 11.5288 148.292 11.6041 148.657 11.7699C149.023 11.9356 149.19 12.1616 149.19 12.463Z" fill="white"/>
</svg>
