<svg width="125" height="50" viewBox="0 0 125 50" fill="none" xmlns="http://www.w3.org/2000/svg">
<path d="M0.388672 30.9364V0.109375H18.7278V30.9213H0.388672V30.9364ZM16.5058 23.7645L16.9776 20.3594L15.273 20.1936L14.7556 22.8153C13.6902 23.3426 12.3814 23.5988 10.8138 23.5988C8.68312 23.5988 6.99378 22.9358 5.76103 21.5949C4.51306 20.2539 3.90429 18.4911 3.90429 16.2913C3.90429 14.1518 4.51306 12.389 5.71538 11.0028C6.91769 9.61663 8.50052 8.92355 10.4638 8.92355C11.4683 8.92355 12.3205 9.04408 13.0054 9.27009C13.6902 9.49609 14.3142 9.79743 14.9078 10.1892L15.41 12.7807L17.145 12.615L16.6428 9.20982C15.9122 8.59208 15.0447 8.09487 14.0403 7.70313C13.0358 7.32645 11.7879 7.13058 10.3116 7.13058C8.56139 7.13058 7.05469 7.55246 5.7915 8.41127C4.52831 9.27009 3.53906 10.4001 2.83898 11.8013C2.1389 13.2176 1.78885 14.7394 1.78885 16.3666C1.78885 18.9431 2.59546 21.0977 4.2087 22.8153C5.82193 24.5329 7.92216 25.3917 10.5246 25.3917C13.0815 25.3917 15.0752 24.8493 16.5058 23.7645Z" fill="white"/>
<path d="M24.9531 30.9364V0.109375H32.8366V30.9213H24.9531V30.9364ZM25.7902 25.1205H32.0148V23.5686H29.8689V6.36217H25.7597V7.91406H27.9361V23.5686H25.7902V25.1205Z" fill="white"/>
<path d="M39.0605 30.9364V0.109375H52.91V30.9213H39.0605V30.9364ZM41.5717 13.9107L41.1304 16.7132L42.7284 16.909L43.2002 14.8147C43.885 14.4833 44.6612 14.3175 45.5743 14.3175C46.6701 14.3175 47.4159 14.5887 47.7964 15.1311C48.1769 15.6736 48.3595 16.3817 48.3595 17.2556V18.3404C48.0247 18.3103 47.6746 18.2801 47.2941 18.2651C46.9136 18.25 46.5484 18.2349 46.1831 18.2349C44.8134 18.2349 43.5045 18.476 42.287 18.9581C41.0695 19.4403 40.4607 20.4498 40.4607 21.9715C40.4607 23.2673 40.8717 24.1563 41.7087 24.6384C42.5458 25.1356 43.3676 25.3767 44.1742 25.3767C45.1635 25.3767 46.0157 25.1205 46.7158 24.6083C47.4159 24.096 47.9638 23.5234 48.3595 22.8605V22.9208C48.3899 24.5631 49.1357 25.3767 50.5967 25.3767C51.1598 25.3767 51.6925 25.2411 52.1947 24.9699L52.1643 23.7193C51.9208 23.8248 51.6468 23.885 51.3424 23.885C50.6423 23.885 50.2923 23.4481 50.2923 22.5742V16.8036C50.2923 14.0915 48.8312 12.7355 45.9092 12.7355C45.1026 12.7355 44.3416 12.8259 43.6263 13.0067C42.8958 13.2026 42.2109 13.5039 41.5717 13.9107ZM48.3442 20.5703C48.2681 21.5647 47.8572 22.3633 47.1115 22.9358C46.3658 23.5234 45.5743 23.8097 44.7221 23.8097C44.1894 23.8097 43.672 23.659 43.185 23.3728C42.6827 23.0865 42.4392 22.5441 42.4392 21.7606C42.4392 20.8114 42.8197 20.2087 43.5502 19.9224C44.296 19.6362 45.1178 19.5006 46.0461 19.5006C46.4571 19.5006 46.8527 19.5156 47.2332 19.5608C47.6137 19.591 47.9942 19.6211 48.329 19.6362V20.5703H48.3442Z" fill="white"/>
<path d="M59.1504 30.9364V0.109375H71.7366V30.9213H59.1504V30.9364ZM70.4126 21.6099C70.4126 20.6457 70.1538 19.9375 69.6364 19.4704C69.1189 19.0033 68.4949 18.6869 67.734 18.5061C66.973 18.3253 66.2273 18.1747 65.4816 18.0541C64.7358 17.9336 64.0966 17.7377 63.5792 17.4816C63.0617 17.2254 62.803 16.7734 62.803 16.1256C62.803 15.5078 63.0465 15.0558 63.5487 14.7545C64.0509 14.4531 64.6749 14.3175 65.4511 14.3175C66.349 14.3175 67.1861 14.5134 67.9623 14.9202L68.2667 16.8789L69.8647 16.683L69.5603 13.8504C69.0428 13.534 68.4189 13.2779 67.6731 13.067C66.9274 12.856 66.136 12.7355 65.2837 12.7355C64.1575 12.7355 63.1226 13.0067 62.1638 13.534C61.205 14.0614 60.7332 14.9654 60.7332 16.2612C60.7332 17.2104 60.9919 17.9035 61.5093 18.3404C62.0268 18.7924 62.666 19.0938 63.4422 19.2746C64.2184 19.4554 64.9793 19.606 65.7403 19.7416C66.5012 19.8622 67.1404 20.0731 67.6579 20.3443C68.1753 20.6155 68.4341 21.0826 68.4341 21.7606C68.4341 22.4537 68.0992 22.966 67.4296 23.2974C66.7599 23.6289 65.999 23.7946 65.1315 23.7946C64.1575 23.7946 63.2443 23.5988 62.4073 23.192L62.4834 21.5798L60.9462 21.4141L60.5658 24.1713C61.0984 24.5179 61.7985 24.8041 62.6508 25.0301C63.5031 25.2561 64.3553 25.3767 65.2228 25.3767C66.6991 25.3767 67.9319 25.0452 68.9211 24.3672C69.9104 23.7193 70.4126 22.7852 70.4126 21.6099Z" fill="white"/>
<path d="M77.9609 30.9364V0.109375H90.5471V30.9213H77.9609V30.9364ZM89.2231 21.6099C89.2231 20.6457 88.9643 19.9375 88.4469 19.4704C87.9294 19.0033 87.3054 18.6869 86.5445 18.5061C85.7835 18.3253 85.0378 18.1747 84.2921 18.0541C83.5463 17.9336 82.9071 17.7377 82.3897 17.4816C81.8722 17.2254 81.6135 16.7734 81.6135 16.1256C81.6135 15.5078 81.857 15.0558 82.3592 14.7545C82.8614 14.4531 83.4854 14.3175 84.2616 14.3175C85.1595 14.3175 85.9966 14.5134 86.7728 14.9202L87.0772 16.8789L88.6752 16.683L88.3708 13.8504C87.8533 13.534 87.2294 13.2779 86.4836 13.067C85.7379 12.856 84.9465 12.7355 84.0942 12.7355C82.968 12.7355 81.9331 13.0067 80.9743 13.534C80.0155 14.0614 79.5437 14.9654 79.5437 16.2612C79.5437 17.2104 79.8024 17.9035 80.3199 18.3404C80.8373 18.7924 81.4766 19.0938 82.2528 19.2746C83.0289 19.4554 83.7898 19.606 84.5508 19.7416C85.3117 19.8622 85.9509 20.0731 86.4684 20.3443C86.9858 20.6155 87.2446 21.0826 87.2446 21.7606C87.2446 22.4537 86.9098 22.966 86.2402 23.2974C85.5705 23.6289 84.8095 23.7946 83.9421 23.7946C82.968 23.7946 82.0548 23.5988 81.2178 23.192L81.2939 21.5798L79.7568 21.4141L79.3763 24.1713C79.909 24.5179 80.6091 24.8041 81.4613 25.0301C82.3136 25.2561 83.1659 25.3767 84.0334 25.3767C85.5096 25.3767 86.7424 25.0452 87.7316 24.3672C88.7209 23.7193 89.2231 22.7852 89.2231 21.6099Z" fill="white"/>
<path d="M96.7715 30.9364V0.109375H105.066V30.9213H96.7715V30.9364ZM97.989 25.1205H104.214V23.5686H102.068V12.9916H97.9434V14.5435H100.15V23.5686H98.0042V25.1205H97.989ZM99.9371 7.37165V9.8577H102.037V7.37165H99.9371Z" fill="white"/>
<path d="M111.291 30.9364V0.109375H124.547V30.9213H111.291V30.9364ZM123.36 21.0374L121.701 20.6758C121.336 22.7249 120.225 23.7494 118.398 23.7494C117.181 23.7494 116.253 23.3426 115.613 22.529C114.974 21.7154 114.654 20.5703 114.654 19.1239C114.654 17.8131 114.944 16.6981 115.507 15.764C116.07 14.8298 117.013 14.3778 118.322 14.3778C119.327 14.3778 120.209 14.6038 120.94 15.0558L121.412 17.1049L123.01 16.909L122.538 13.9861C121.914 13.519 121.26 13.1875 120.575 13.0067C119.89 12.8259 119.144 12.7355 118.337 12.7355C116.435 12.7355 114.989 13.3984 114.046 14.7243C113.087 16.0502 112.615 17.5569 112.615 19.2294C112.615 21.173 113.117 22.6948 114.137 23.7645C115.141 24.8493 116.496 25.3917 118.185 25.3917C119.875 25.3917 121.123 24.9247 121.914 24.0056C122.705 23.0714 123.192 22.0921 123.36 21.0374Z" fill="white"/>
<path d="M8.31756 47.7663C7.96752 48.3991 7.45005 48.8963 6.78041 49.2429C6.09555 49.5894 5.28892 49.7702 4.34534 49.7702H1.62109V41.2725H4.34534C5.28892 41.2725 6.11077 41.4382 6.78041 41.7847C7.45005 42.1313 7.96752 42.6134 8.31756 43.2613C8.6676 43.9092 8.83501 44.6475 8.83501 45.5213C8.83501 46.3802 8.6676 47.1335 8.31756 47.7663ZM6.81083 47.9321C7.40438 47.3595 7.69357 46.561 7.69357 45.5213C7.69357 44.4817 7.40438 43.6832 6.81083 43.1106C6.21728 42.5381 5.36501 42.2518 4.23879 42.2518H2.70169V48.7909H4.23879C5.36501 48.7909 6.21728 48.5046 6.81083 47.9321Z" fill="white"/>
<path d="M14.4821 42.1614V45.0693H17.739V45.9131H14.4821V48.8813H18.1043V49.7702H13.3711V41.2725H18.1043V42.1614H14.4821Z" fill="white"/>
<path d="M27.7227 48.6855C27.5249 49.032 27.2357 49.3183 26.84 49.5292C26.4443 49.7402 25.9573 49.8607 25.3637 49.8607C24.8006 49.8607 24.2831 49.7552 23.8418 49.5594C23.4004 49.3484 23.0504 49.0772 22.7765 48.7156C22.5178 48.354 22.3655 47.9472 22.3199 47.4952H23.507C23.5374 47.7363 23.6135 47.9773 23.7505 48.2033C23.8875 48.4293 24.1005 48.6252 24.3592 48.7759C24.618 48.9266 24.9376 49.0019 25.3181 49.0019C25.8051 49.0019 26.1856 48.8813 26.4443 48.6101C26.703 48.3389 26.84 48.0225 26.84 47.6157C26.84 47.2692 26.7487 46.9829 26.566 46.772C26.3834 46.561 26.1551 46.3802 25.8964 46.2597C25.6377 46.1392 25.2572 46.0036 24.8006 45.8529C24.2527 45.6721 23.8266 45.5063 23.4918 45.3557C23.157 45.205 22.883 44.9639 22.6547 44.6475C22.4264 44.3311 22.3047 43.9243 22.3047 43.412C22.3047 42.9751 22.4112 42.5834 22.6243 42.2368C22.8373 41.9053 23.1417 41.6341 23.5526 41.4533C23.9483 41.2725 24.4354 41.1821 24.968 41.1821C25.8051 41.1821 26.4899 41.378 26.9769 41.7848C27.4792 42.1916 27.7531 42.7039 27.8444 43.3367H26.6573C26.5965 43.0052 26.4138 42.7039 26.1399 42.4478C25.8507 42.1916 25.4702 42.056 24.9832 42.056C24.5419 42.056 24.1766 42.1766 23.9179 42.4026C23.644 42.6286 23.5222 42.96 23.5222 43.3668C23.5222 43.6983 23.6135 43.9695 23.7809 44.1654C23.9636 44.3763 24.1766 44.527 24.4354 44.6475C24.6941 44.7681 25.0593 44.8886 25.5007 45.0393C26.0486 45.2201 26.4899 45.3858 26.84 45.5516C27.1748 45.7173 27.4639 45.9584 27.6922 46.2748C27.9205 46.5912 28.0423 47.0281 28.0423 47.5705C28.0119 47.9623 27.9206 48.3389 27.7227 48.6855Z" fill="white"/>
<path d="M33.6579 41.2725V49.7702H32.5469V41.2725H33.6579Z" fill="white"/>
<path d="M44.8886 41.9202C45.5735 42.4174 46.03 43.0804 46.2583 43.9241H45.0865C44.8886 43.4118 44.5386 42.99 44.0668 42.6886C43.595 42.3722 43.0319 42.2215 42.3775 42.2215C41.7991 42.2215 41.2664 42.3571 40.8098 42.6284C40.3533 42.8996 39.988 43.2762 39.7141 43.7734C39.4554 44.2707 39.3184 44.8583 39.3184 45.5363C39.3184 46.2294 39.4554 46.832 39.7141 47.3293C39.9728 47.8265 40.3533 48.2182 40.8251 48.4894C41.2969 48.7606 41.8448 48.8962 42.4688 48.8962C43.0014 48.8962 43.4732 48.7757 43.9146 48.5647C44.3559 48.3387 44.7059 48.0073 44.9951 47.5854C45.2843 47.1635 45.4365 46.6512 45.4974 46.0787H42.1187V45.2651H46.4257V46.2746C46.3496 46.9526 46.1366 47.5553 45.7865 48.1127C45.4365 48.6702 44.9647 49.0921 44.3712 49.4085C43.7776 49.7249 43.1079 49.8906 42.347 49.8906C41.5252 49.8906 40.7946 49.7098 40.1554 49.3482C39.5162 48.9866 39.0292 48.4743 38.6792 47.8114C38.3291 47.1635 38.1465 46.4102 38.1465 45.5664C38.1465 44.7227 38.3291 43.9693 38.6792 43.3214C39.0292 42.6736 39.5314 42.1462 40.1554 41.7846C40.7794 41.423 41.5099 41.2271 42.3318 41.2271C43.3667 41.197 44.2037 41.4381 44.8886 41.9202Z" fill="white"/>
<path d="M57.6577 49.7702H56.5468L52.0875 43.0504V49.7702H50.9766V41.2725H52.0875L56.5468 47.9923V41.2725H57.6577V49.7702Z" fill="white"/>
<path d="M73.668 48.6855C73.4702 49.032 73.181 49.3183 72.7853 49.5292C72.3896 49.7402 71.9026 49.8607 71.3091 49.8607C70.746 49.8607 70.2285 49.7552 69.7871 49.5594C69.3458 49.3484 68.9957 49.0772 68.7218 48.7156C68.4631 48.354 68.3109 47.9472 68.2652 47.4952H69.4523C69.4827 47.7363 69.5589 47.9773 69.6958 48.2033C69.8328 48.4293 70.0458 48.6252 70.3045 48.7759C70.5633 48.9266 70.8829 49.0019 71.2634 49.0019C71.7504 49.0019 72.1308 48.8813 72.3896 48.6101C72.6483 48.3389 72.7853 48.0225 72.7853 47.6157C72.7853 47.2692 72.694 46.9829 72.5113 46.772C72.3287 46.561 72.1004 46.3802 71.8417 46.2597C71.583 46.1392 71.2025 46.0036 70.746 45.8529C70.1981 45.6721 69.7719 45.5063 69.437 45.3557C69.1022 45.205 68.8283 44.9639 68.6 44.6475C68.3717 44.3311 68.25 43.9243 68.25 43.412C68.25 42.9751 68.3565 42.5834 68.5695 42.2368C68.7826 41.9053 69.0871 41.6341 69.498 41.4533C69.8937 41.2725 70.3807 41.1821 70.9134 41.1821C71.7504 41.1821 72.4353 41.378 72.9223 41.7848C73.4245 42.1916 73.6985 42.7039 73.7898 43.3367H72.6027C72.5418 43.0052 72.3591 42.7039 72.0852 42.4478C71.796 42.1916 71.4156 42.056 70.9286 42.056C70.4872 42.056 70.122 42.1766 69.8632 42.4026C69.5893 42.6286 69.4675 42.96 69.4675 43.3668C69.4675 43.6983 69.5588 43.9695 69.7262 44.1654C69.9088 44.3763 70.1219 44.527 70.3806 44.6475C70.6394 44.7681 71.0046 44.8886 71.446 45.0393C71.9939 45.2201 72.4352 45.3858 72.7853 45.5516C73.1201 45.7173 73.4093 45.9584 73.6375 46.2748C73.8658 46.5912 73.9876 47.0281 73.9876 47.5705C73.9571 47.9623 73.8659 48.3389 73.668 48.6855Z" fill="white"/>
<path d="M83.7589 41.2725V42.1614H81.3391V49.7702H80.2129V42.1614H77.793V41.2725H83.7589Z" fill="white"/>
<path d="M88.934 41.2725V46.3651C88.934 47.1938 89.1166 47.8115 89.4971 48.2183C89.8776 48.6101 90.3799 48.821 91.0495 48.821C91.7039 48.821 92.2062 48.6251 92.5714 48.2183C92.9367 47.8115 93.1193 47.2088 93.1193 46.3802V41.2875H94.2303V46.3802C94.2303 47.5403 93.9412 48.4142 93.3628 48.9867C92.7845 49.5744 92.0083 49.8606 91.0343 49.8606C90.0755 49.8606 89.2993 49.5744 88.721 48.9867C88.1427 48.3991 87.8535 47.5403 87.8535 46.3802V41.2875H88.934V41.2725Z" fill="white"/>
<path d="M105.691 47.7663C105.34 48.3991 104.823 48.8963 104.153 49.2429C103.469 49.5894 102.662 49.7702 101.718 49.7702H98.9941V41.2725H101.718C102.662 41.2725 103.484 41.4382 104.153 41.7847C104.823 42.1313 105.34 42.6134 105.691 43.2613C106.041 43.9092 106.208 44.6475 106.208 45.5213C106.208 46.3802 106.041 47.1335 105.691 47.7663ZM104.199 47.9321C104.793 47.3595 105.082 46.561 105.082 45.5213C105.082 44.4817 104.793 43.6832 104.199 43.1106C103.606 42.5381 102.753 42.2518 101.627 42.2518H100.09V48.7909H101.627C102.738 48.7909 103.606 48.5046 104.199 47.9321Z" fill="white"/>
<path d="M111.869 41.2725V49.7702H110.758V41.2725H111.869Z" fill="white"/>
<path d="M122.766 41.724C123.405 42.1007 123.907 42.6129 124.272 43.2759C124.637 43.9388 124.82 44.6922 124.82 45.5209C124.82 46.3495 124.637 47.1029 124.272 47.7658C123.907 48.4288 123.405 48.9411 122.766 49.3177C122.126 49.6944 121.411 49.8752 120.62 49.8752C119.828 49.8752 119.098 49.6944 118.458 49.3177C117.819 48.9411 117.302 48.4288 116.937 47.7658C116.571 47.1029 116.389 46.3495 116.389 45.5209C116.389 44.6922 116.571 43.9388 116.937 43.2759C117.302 42.6129 117.804 42.1007 118.458 41.724C119.113 41.3473 119.828 41.1665 120.62 41.1665C121.411 41.1665 122.126 41.3473 122.766 41.724ZM119.022 42.5979C118.55 42.8691 118.185 43.2457 117.926 43.758C117.667 44.2552 117.53 44.8428 117.53 45.5209C117.53 46.1838 117.667 46.7714 117.926 47.2837C118.185 47.796 118.55 48.1726 119.022 48.4438C119.493 48.7151 120.011 48.8507 120.604 48.8507C121.183 48.8507 121.715 48.7151 122.187 48.4438C122.659 48.1726 123.024 47.7809 123.283 47.2837C123.542 46.7865 123.679 46.1989 123.679 45.5359C123.679 44.8579 123.542 44.2703 123.283 43.7731C123.024 43.2759 122.659 42.8841 122.187 42.6129C121.715 42.3417 121.198 42.2061 120.604 42.2061C120.026 42.1911 119.493 42.3267 119.022 42.5979Z" fill="white"/>
</svg>
