<svg width="30" height="28" viewBox="0 0 30 28" fill="none" xmlns="http://www.w3.org/2000/svg">
<path d="M2.3446 7.29758C2.3446 9.58951 3.12781 11.2433 4.67069 12.2143C5.93575 13.0121 7.40172 13.1317 8.16453 13.1317C8.34974 13.1317 8.49884 13.1225 8.60244 13.1164C8.60244 13.1164 8.36072 14.6566 9.52848 16.1784H9.47511C7.45195 16.1784 0.853516 16.5911 0.853516 21.896C0.853516 27.2899 6.91359 27.5645 8.13 27.5645C8.22574 27.5645 8.28224 27.5614 8.28224 27.5614C8.2948 27.5614 8.38113 27.5645 8.53024 27.5645C9.31031 27.5645 11.3272 27.4693 13.1997 26.578C15.6294 25.4275 16.8615 23.4193 16.8615 20.6181C16.8615 17.912 14.9843 16.3012 13.614 15.123C12.7775 14.4035 12.0539 13.7837 12.0539 13.1808C12.0539 12.5672 12.5828 12.1054 13.2499 11.5209C14.3313 10.5775 15.3515 9.23207 15.3515 6.68854C15.3515 4.45337 15.0549 2.9515 13.2264 1.99883C13.4163 1.90371 14.0912 1.83468 14.4239 1.78866C15.4143 1.65673 16.863 1.50638 16.863 0.716328V0.564453H9.64462C9.57242 0.567521 2.3446 0.828317 2.3446 7.29758ZM13.997 21.1243C14.1351 23.2813 12.247 24.8721 9.41076 25.0731C6.53062 25.2802 4.16058 24.013 4.02246 21.8576C3.95497 20.8206 4.42113 19.8081 5.33304 18.9996C6.25751 18.182 7.52729 17.6757 8.9085 17.576C9.07173 17.5668 9.2334 17.5576 9.39506 17.5576C12.0617 17.5591 13.8667 19.0901 13.997 21.1243ZM12.112 5.82025C12.8198 8.25639 11.751 10.7999 10.0464 11.2709C9.85021 11.3243 9.64741 11.3512 9.44372 11.3506C7.88358 11.3506 6.33756 9.80735 5.7631 7.67957C5.44291 6.48911 5.46959 5.44286 5.83687 4.43957C6.1963 3.45008 6.8461 2.78582 7.66227 2.56031C7.85846 2.50661 8.06094 2.479 8.26655 2.479C10.15 2.479 11.3617 3.24298 12.112 5.82025ZM24.3357 10.9963V6.394H21.1966V10.9963H16.4879V14.0645H21.1966V18.6667H24.3357V14.0645H29.0444V10.9963H24.3357Z" fill="#AD1AAF"/>
</svg>
