<svg width="48" height="48" viewBox="0 0 48 48" fill="none" xmlns="http://www.w3.org/2000/svg">
<circle cx="24" cy="24" r="24" fill="#AD1AAF"/>
<circle cx="24" cy="24" r="24" fill="#AD1AAF"/>
<mask id="mask0_284_7027" style="mask-type:luminance" maskUnits="userSpaceOnUse" x="0" y="0" width="48" height="48">
<circle cx="24" cy="24" r="24" fill="white"/>
</mask>
<g mask="url(#mask0_284_7027)">
<path d="M19.4072 14.4856C18.4909 13.8735 17.156 14.5322 17.2552 15.7237L17.2842 16.0712C17.7257 21.3727 18.6595 26.6249 20.0743 31.7641C20.4112 32.988 22.1046 33.0934 22.6187 31.959L24.7474 27.262C24.9508 26.813 25.445 26.5248 25.9811 26.5822L31.2475 27.1462C32.4563 27.2756 33.3106 25.7997 32.3418 24.8644C28.4531 21.1102 24.2232 17.7029 19.7036 14.6836L19.4072 14.4856Z" fill="white"/>
</g>
</svg>
