<svg width="48" height="48" viewBox="0 0 48 48" fill="none" xmlns="http://www.w3.org/2000/svg">
<ellipse opacity="0.9" cx="23.814" cy="24" rx="23.814" ry="24" fill="url(#paint0_linear_284_6998)"/>
<path d="M18 21.2178H15C13.9 21.2178 13 20.3178 13 19.2178V17.2178C13 16.1178 13.9 15.2178 15 15.2178H18C19.1 15.2178 20 16.1178 20 17.2178V19.2178C20 20.3178 19.1 21.2178 18 21.2178Z" fill="#AD1AAF"/>
<path d="M31.8 20.2178H28.2C27.54 20.2178 27 19.6778 27 19.0178V17.4178C27 16.7578 27.54 16.2178 28.2 16.2178H31.8C32.46 16.2178 33 16.7578 33 17.4178V19.0178C33 19.6778 32.46 20.2178 31.8 20.2178Z" fill="#AD1AAF"/>
<path d="M31.8 27.7178H28.2C27.54 27.7178 27 27.1778 27 26.5178V24.9178C27 24.2578 27.54 23.7178 28.2 23.7178H31.8C32.46 23.7178 33 24.2578 33 24.9178V26.5178C33 27.1778 32.46 27.7178 31.8 27.7178Z" fill="#AD1AAF"/>
<path opacity="0.37" d="M27 26.4678C27.41 26.4678 27.75 26.1278 27.75 25.7178C27.75 25.3078 27.41 24.9678 27 24.9678H24.25V18.9678H27C27.41 18.9678 27.75 18.6278 27.75 18.2178C27.75 17.8078 27.41 17.4678 27 17.4678H20C19.59 17.4678 19.25 17.8078 19.25 18.2178C19.25 18.6278 19.59 18.9678 20 18.9678H22.75V31.2178C22.75 32.7378 23.98 33.9678 25.5 33.9678H27C27.41 33.9678 27.75 33.6278 27.75 33.2178C27.75 32.8078 27.41 32.4678 27 32.4678H25.5C24.81 32.4678 24.25 31.9078 24.25 31.2178V26.4678H27Z" fill="#AD1AAF"/>
<path d="M31.8 35.2178H28.2C27.54 35.2178 27 34.6778 27 34.0178V32.4178C27 31.7578 27.54 31.2178 28.2 31.2178H31.8C32.46 31.2178 33 31.7578 33 32.4178V34.0178C33 34.6778 32.46 35.2178 31.8 35.2178Z" fill="#AD1AAF"/>
<circle cx="24" cy="24" r="24" fill="#AD1AAF"/>
<mask id="mask0_284_6998" style="mask-type:luminance" maskUnits="userSpaceOnUse" x="0" y="0" width="48" height="48">
<circle cx="24" cy="24" r="24" fill="white"/>
</mask>
<g mask="url(#mask0_284_6998)">
<path fill-rule="evenodd" clip-rule="evenodd" d="M24.0107 15.2178L31.2843 15.4234C32.5695 15.4598 33.6325 16.4354 33.7787 17.7128C34.1022 20.5404 34.1022 23.3957 33.7787 26.2233C33.6325 27.5007 32.5695 28.4764 31.2843 28.5127L25.2607 28.683V30.7181H29.0107C29.4249 30.7181 29.7607 31.0539 29.7607 31.4681C29.7607 31.8823 29.4249 32.2181 29.0107 32.2181H19.0107C18.5965 32.2181 18.2607 31.8823 18.2607 31.4681C18.2607 31.0539 18.5965 30.7181 19.0107 30.7181H22.7607V28.683L16.737 28.5127C15.4518 28.4764 14.3888 27.5007 14.2426 26.2233C13.9191 23.3957 13.9191 20.5404 14.2426 17.7128C14.3888 16.4354 15.4518 15.4598 16.737 15.4234L24.0107 15.2178ZM17.0107 25.2181C16.5965 25.2181 16.2607 25.5539 16.2607 25.9681C16.2607 26.3823 16.5965 26.7181 17.0107 26.7181H31.0107C31.4249 26.7181 31.7607 26.3823 31.7607 25.9681C31.7607 25.5539 31.4249 25.2181 31.0107 25.2181H17.0107Z" fill="white"/>
</g>
<defs>
<linearGradient id="paint0_linear_284_6998" x1="23.814" y1="0" x2="23.814" y2="48" gradientUnits="userSpaceOnUse">
<stop stop-color="white"/>
<stop offset="1" stop-color="white" stop-opacity="0.6"/>
</linearGradient>
</defs>
</svg>
