<svg width="48" height="48" viewBox="0 0 48 48" fill="none" xmlns="http://www.w3.org/2000/svg">
<circle cx="24" cy="24" r="24" fill="#AD1AAF"/>
<circle cx="24" cy="24" r="24" fill="#AD1AAF"/>
<mask id="mask0_284_7056" style="mask-type:luminance" maskUnits="userSpaceOnUse" x="0" y="0" width="48" height="48">
<circle cx="24" cy="24" r="24" fill="white"/>
</mask>
<g mask="url(#mask0_284_7056)">
<path d="M25.2834 15.4549C24.684 15.1421 23.8605 15.1374 23.2568 15.4491C20.6782 16.7809 18.3415 18.3067 16.2956 19.9973C16.0227 20.2227 15.8422 20.5383 15.8453 20.8989C15.8484 21.2583 16.033 21.5704 16.3049 21.7927C18.3344 23.4521 20.6738 24.9798 23.2055 26.3011C23.805 26.614 24.6284 26.6187 25.2321 26.307C27.8107 24.9752 30.1474 23.4494 32.1934 21.7588C32.4662 21.5333 32.6468 21.2178 32.6437 20.8572C32.6406 20.4977 32.456 20.1857 32.184 19.9634C30.1545 18.3039 27.8152 16.7763 25.2834 15.4549Z" fill="white"/>
<path d="M33.2025 25.6045C33.5539 25.3851 33.6609 24.9224 33.4415 24.5711C33.2222 24.2197 32.7595 24.1127 32.4081 24.3321L26.3009 28.145C25.7569 28.4846 25.0178 28.674 24.2443 28.674C23.4709 28.6741 22.7317 28.4848 22.1875 28.1452L16.1472 24.3754C15.7958 24.1561 15.3331 24.2632 15.1138 24.6146C14.8945 24.966 15.0016 25.4286 15.353 25.6479L21.3933 29.4177C22.2222 29.935 23.2505 30.1741 24.2444 30.174C25.2383 30.174 26.2665 29.9347 27.0953 29.4173L33.2025 25.6045Z" fill="white"/>
<path d="M33.2026 29.3591C33.5539 29.1397 33.6609 28.6771 33.4415 28.3257C33.2221 27.9744 32.7594 27.8674 32.4081 28.0868L27.1191 31.3897C26.3463 31.8723 25.3125 32.1332 24.2443 32.1333C23.1761 32.1334 22.1421 31.8726 21.3691 31.39L16.1473 28.1302C15.7959 27.9109 15.3332 28.0179 15.1139 28.3693C14.8945 28.7206 15.0016 29.1833 15.3529 29.4026L20.5748 32.6624C21.6326 33.3228 22.9556 33.6334 24.2444 33.6333C25.5331 33.6332 26.856 33.3225 27.9137 32.662L33.2026 29.3591Z" fill="white"/>
</g>
</svg>
