<svg width="48" height="48" viewBox="0 0 48 48" fill="none" xmlns="http://www.w3.org/2000/svg">
<ellipse opacity="0.9" cx="23.814" cy="24" rx="23.814" ry="24" fill="#AD1AAF"/>
<path d="M18 21.2178H15C13.9 21.2178 13 20.3178 13 19.2178V17.2178C13 16.1178 13.9 15.2178 15 15.2178H18C19.1 15.2178 20 16.1178 20 17.2178V19.2178C20 20.3178 19.1 21.2178 18 21.2178Z" fill="white"/>
<path d="M31.8 20.2178H28.2C27.54 20.2178 27 19.6778 27 19.0178V17.4178C27 16.7578 27.54 16.2178 28.2 16.2178H31.8C32.46 16.2178 33 16.7578 33 17.4178V19.0178C33 19.6778 32.46 20.2178 31.8 20.2178Z" fill="white"/>
<path d="M31.8 27.7178H28.2C27.54 27.7178 27 27.1778 27 26.5178V24.9178C27 24.2578 27.54 23.7178 28.2 23.7178H31.8C32.46 23.7178 33 24.2578 33 24.9178V26.5178C33 27.1778 32.46 27.7178 31.8 27.7178Z" fill="white"/>
<path opacity="0.37" d="M27 26.4678C27.41 26.4678 27.75 26.1278 27.75 25.7178C27.75 25.3078 27.41 24.9678 27 24.9678H24.25V18.9678H27C27.41 18.9678 27.75 18.6278 27.75 18.2178C27.75 17.8078 27.41 17.4678 27 17.4678H20C19.59 17.4678 19.25 17.8078 19.25 18.2178C19.25 18.6278 19.59 18.9678 20 18.9678H22.75V31.2178C22.75 32.7378 23.98 33.9678 25.5 33.9678H27C27.41 33.9678 27.75 33.6278 27.75 33.2178C27.75 32.8078 27.41 32.4678 27 32.4678H25.5C24.81 32.4678 24.25 31.9078 24.25 31.2178V26.4678H27Z" fill="white"/>
<path d="M31.8 35.2178H28.2C27.54 35.2178 27 34.6778 27 34.0178V32.4178C27 31.7578 27.54 31.2178 28.2 31.2178H31.8C32.46 31.2178 33 31.7578 33 32.4178V34.0178C33 34.6778 32.46 35.2178 31.8 35.2178Z" fill="white"/>
</svg>
