<svg width="36" height="37" viewBox="0 0 36 37" fill="none" xmlns="http://www.w3.org/2000/svg">
<rect y="0.724854" width="36" height="36" rx="18" fill="#F81DFB"/>
<path fill-rule="evenodd" clip-rule="evenodd" d="M13.5 13.2874C12.9822 13.2874 12.5625 13.7071 12.5625 14.2249V23.2249C12.5625 23.7426 12.9822 24.1624 13.5 24.1624H22.5C23.0178 24.1624 23.4375 23.7426 23.4375 23.2249V14.2249C23.4375 13.7071 23.0178 13.2874 22.5 13.2874H13.5ZM11.4375 14.2249C11.4375 13.0858 12.3609 12.1624 13.5 12.1624H22.5C23.6391 12.1624 24.5625 13.0858 24.5625 14.2249V23.2249C24.5625 24.3639 23.6391 25.2874 22.5 25.2874H13.5C12.3609 25.2874 11.4375 24.3639 11.4375 23.2249V14.2249ZM15 17.4124C15.3107 17.4124 15.5625 17.6642 15.5625 17.9749V21.7249C15.5625 22.0355 15.3107 22.2874 15 22.2874C14.6893 22.2874 14.4375 22.0355 14.4375 21.7249V17.9749C14.4375 17.6642 14.6893 17.4124 15 17.4124ZM15.5625 15.7249C15.5625 15.4142 15.3107 15.1624 15 15.1624C14.6893 15.1624 14.4375 15.4142 14.4375 15.7249V15.7324C14.4375 16.043 14.6893 16.2949 15 16.2949C15.3107 16.2949 15.5625 16.043 15.5625 15.7324V15.7249ZM18.4804 17.682C18.3816 17.5203 18.2034 17.4124 18 17.4124C17.6893 17.4124 17.4375 17.6642 17.4375 17.9749V19.4749V21.7249C17.4375 22.0355 17.6893 22.2874 18 22.2874C18.3107 22.2874 18.5625 22.0355 18.5625 21.7249V19.4749C18.5625 19.2262 18.6613 18.9878 18.8371 18.8119C19.0129 18.6361 19.2514 18.5374 19.5 18.5374C19.7486 18.5374 19.9871 18.6361 20.1629 18.8119C20.3387 18.9878 20.4375 19.2262 20.4375 19.4749V21.7249C20.4375 22.0355 20.6893 22.2874 21 22.2874C21.3107 22.2874 21.5625 22.0355 21.5625 21.7249V19.4749C21.5625 18.9278 21.3452 18.4032 20.9584 18.0164C20.5716 17.6297 20.047 17.4124 19.5 17.4124C19.1394 17.4124 18.7885 17.5068 18.4804 17.682Z" fill="white"/>
</svg>
