<svg width="36" height="37" viewBox="0 0 36 37" fill="none" xmlns="http://www.w3.org/2000/svg">
<rect y="0.724854" width="36" height="36" rx="18" fill="#F81DFB"/>
<path fill-rule="evenodd" clip-rule="evenodd" d="M12.0563 14.6228C12.1735 14.2387 12.5307 13.9592 12.9532 13.9592H23.4532C23.8757 13.9592 24.2328 14.2387 24.35 14.6228L18.2032 18.7207L12.0563 14.6228ZM10.8907 14.8864C10.8906 14.8924 10.8906 14.8984 10.8907 14.9044V22.3967C10.8907 23.5358 11.8141 24.4592 12.9532 24.4592H23.4532C24.5923 24.4592 25.5157 23.5358 25.5157 22.3967V14.9044M24.3907 15.9478V22.3967C24.3907 22.9145 23.971 23.3342 23.4532 23.3342H12.9532C12.4354 23.3342 12.0157 22.9145 12.0157 22.3967V15.9478L17.8912 19.8648C18.0801 19.9907 18.3263 19.9907 18.5152 19.8648L24.3907 15.9478ZM25.5157 14.8864C25.5101 13.7521 24.5888 12.8342 23.4532 12.8342H12.9532C11.8175 12.8342 10.8963 13.7521 10.8907 14.8864" fill="white"/>
</svg>
