<svg width="36" height="37" viewBox="0 0 36 37" fill="none" xmlns="http://www.w3.org/2000/svg">
<rect y="0.724854" width="36" height="36" rx="18" fill="#F81DFB"/>
<path d="M15.9141 18.6469C15.3207 18.6469 14.7407 18.8228 14.2474 19.1524C13.754 19.4821 13.3695 19.9506 13.1424 20.4988C12.9154 21.047 12.856 21.6502 12.9717 22.2321C13.0875 22.8141 13.3732 23.3486 13.7927 23.7682C14.2123 24.1877 14.7468 24.4735 15.3288 24.5892C15.9107 24.705 16.5139 24.6456 17.0621 24.4185C17.6103 24.1914 18.0788 23.8069 18.4085 23.3136C18.7381 22.8202 18.9141 22.2402 18.9141 21.6469V12.6469C18.9141 13.6414 19.3092 14.5952 20.0124 15.2985C20.7157 16.0018 21.6695 16.3969 22.6641 16.3969" stroke="white" stroke-width="1.125" stroke-linecap="round" stroke-linejoin="round"/>
</svg>
