<svg width="36" height="37" viewBox="0 0 36 37" fill="none" xmlns="http://www.w3.org/2000/svg">
<rect y="0.724854" width="36" height="36" rx="18" fill="#F81DFB"/>
<path d="M25.2266 12.6544C24.4766 13.0219 23.7416 13.1711 22.9766 13.3969C22.1358 12.4481 20.8893 12.3956 19.6916 12.8441C18.4938 13.2926 17.7093 14.3891 17.7266 15.6469V16.3969C15.2928 16.4591 13.1253 15.3506 11.7266 13.3969C11.7266 13.3969 8.59006 18.9716 14.7266 21.6469C13.3226 22.5821 11.9223 23.2129 10.2266 23.1469C12.7076 24.4991 15.4113 24.9641 17.7521 24.2846C20.4371 23.5046 22.6436 21.4924 23.4903 18.4781C23.7429 17.5614 23.8683 16.6143 23.8631 15.6634C23.8616 15.4766 24.9956 13.5844 25.2266 12.6536V12.6544Z" stroke="white" stroke-width="1.125" stroke-linecap="round" stroke-linejoin="round"/>
</svg>
