<svg width="34" height="28" viewBox="0 0 34 28" fill="none" xmlns="http://www.w3.org/2000/svg">
<path d="M30.3719 7.39276C30.3937 7.68442 30.3937 7.97442 30.3937 8.26442C30.3937 17.1394 23.5926 27.3661 11.1635 27.3661C7.33423 27.3661 3.77681 26.2644 0.783203 24.3511C1.32688 24.4128 1.85043 24.4344 2.41592 24.4344C5.45818 24.4417 8.41428 23.4313 10.8077 21.5661C9.39723 21.5407 8.0299 21.0785 6.89666 20.244C5.76342 19.4094 4.92086 18.2442 4.48661 16.9111C4.90444 16.9728 5.32395 17.0144 5.76359 17.0144C6.36936 17.0144 6.97848 16.9311 7.54398 16.7861C6.01321 16.4791 4.63675 15.655 3.64864 14.4539C2.66052 13.2528 2.12175 11.7488 2.12395 10.1978V10.1144C3.02505 10.6128 4.07046 10.9244 5.17796 10.9661C4.25016 10.3537 3.48939 9.52279 2.96353 8.54741C2.43767 7.57202 2.16307 6.48252 2.16422 5.37609C2.16422 4.12942 2.49815 2.98609 3.08378 1.98942C4.78218 4.06446 6.90046 5.76203 9.30144 6.97219C11.7024 8.18235 14.3325 8.87811 17.0215 9.01442C16.9174 8.51442 16.8537 7.99609 16.8537 7.47609C16.8532 6.59436 17.0278 5.72119 17.3673 4.90649C17.7068 4.09179 18.2047 3.35155 18.8324 2.72807C19.4601 2.10459 20.2054 1.61011 21.0257 1.27289C21.8459 0.935666 22.725 0.762319 23.6128 0.762757C25.5593 0.762757 27.3162 1.57276 28.5512 2.88276C30.0644 2.59212 31.5155 2.04346 32.8403 1.26109C32.3359 2.81245 31.2793 4.12793 29.8685 4.96109C31.2105 4.80906 32.5222 4.45851 33.7598 3.92109C32.8354 5.25959 31.69 6.43333 30.3719 7.39276Z" fill="#AD1AAF"/>
</svg>
