<svg width="38" height="28" viewBox="0 0 38 28" fill="none" xmlns="http://www.w3.org/2000/svg">
<path d="M37.0137 5.0588C36.7987 4.26643 36.3785 3.54381 35.7949 2.96286C35.2113 2.38192 34.4848 1.96291 33.6875 1.74755C30.7312 0.9413 18.9043 0.928176 18.9043 0.928176C18.9043 0.928176 7.07919 0.91505 4.12103 1.68568C3.32425 1.91095 2.59914 2.33588 2.01533 2.91968C1.43153 3.50347 1.00862 4.22653 0.787208 5.01943C0.00755424 7.95568 2.76587e-06 14.0457 2.76587e-06 14.0457C2.76587e-06 14.0457 -0.00754833 20.1657 0.766442 23.0719C1.20063 24.6788 2.47489 25.9482 4.0946 26.3813C7.08107 27.1876 18.8759 27.2007 18.8759 27.2007C18.8759 27.2007 30.7029 27.2138 33.6592 26.445C34.4567 26.2301 35.184 25.812 35.769 25.2323C36.3541 24.6525 36.7766 23.9311 36.9949 23.1394C37.7764 20.2051 37.7821 14.1169 37.7821 14.1169C37.7821 14.1169 37.8198 7.99505 37.0137 5.0588ZM15.1211 19.6875L15.1306 8.43755L24.9603 14.0719L15.1211 19.6875Z" fill="#AD1AAF"/>
</svg>
